# File created by Blade
# Date/Time:  Tue Sep 30 19:15:05 2014
# Frame Rate: 120.000 fps
#------------------------------------------------------
:FULLY-SPECIFIED
:DEGREES
1101
root -1.283597 33.598031 -3.699493 10.885352 -1.943438 -15.581143
Spine -12.795386 10.256390 12.270071
Head -3.448101 -13.607175 9.216414
LeftShoulder 20.476021 9.483473 17.965708
LeftArm 3.558726 -19.312911 -83.574635
LeftForeArm -127.941779 19.309430 -14.456450
LeftHand 0.000043 34.353337 21.093544
LeftHandThumb1 30.357831 13.997178 22.438692
RightShoulder -10.000632 -21.022862 -18.506708
RightArm 17.404056 -13.258996 75.069290
RightForeArm 25.583658 -12.715506 24.690224
RightHand -0.000043 -6.279944 10.573624
RightHandThumb1 30.482666 -12.916435 -20.793814
LeftUpLeg -16.379552 10.484405 6.642195
LeftLeg 14.894200 -0.000000 -0.000000
LeftFoot -13.024448 4.348034 -9.365453
LeftToeBase 3.401800 0.000000 0.000000
RightUpLeg -76.451960 -4.292086 5.528343
RightLeg 132.626999 0.000000 0.000000
RightFoot 28.678070 1.793064 -3.344499
RightToeBase 14.395300 -0.000000 -0.000000
1102
root -1.283597 33.603734 -3.706793 10.911089 -1.776450 -15.582488
Spine -12.905457 10.243655 12.320269
Head -3.355533 -13.685760 9.124031
LeftShoulder 20.511535 9.529995 17.911971
LeftArm 3.631221 -19.378639 -83.577560
LeftForeArm -127.898565 19.359153 -14.469165
LeftHand -0.000021 34.376767 21.142851
LeftHandThumb1 30.357831 13.997178 22.438692
RightShoulder -9.947580 -21.055240 -18.550278
RightArm 17.341667 -13.285547 75.000293
RightForeArm 25.727925 -12.796078 24.685009
RightHand -0.000043 -6.242498 10.528521
RightHandThumb1 30.482666 -12.916435 -20.793814
LeftUpLeg -16.446797 10.442213 6.650985
LeftLeg 14.873900 -0.000000 -0.000000
LeftFoot -12.945067 4.190798 -9.361594
LeftToeBase 3.527500 -0.000000 -0.000000
RightUpLeg -76.353166 -4.442096 5.578475
RightLeg 133.090805 0.000000 0.000000
RightFoot 29.262734 1.847896 -2.870546
RightToeBase 13.943500 -0.000000 -0.000000
1103
root -1.278997 33.608331 -3.714193 10.947876 -1.634989 -15.533726
Spine -13.036755 10.243134 12.299999
Head -3.253306 -13.712327 9.099741
LeftShoulder 20.531302 9.554831 17.868248
LeftArm 3.696957 -19.404268 -83.575948
LeftForeArm -127.892272 19.489853 -14.555931
LeftHand 0.000039 34.458339 21.145698
LeftHandThumb1 30.357831 13.997178 22.438692
RightShoulder -9.885355 -21.082126 -18.561552
RightArm 17.283117 -13.289230 74.918366
RightForeArm 25.847088 -12.864393 24.683394
RightHand 0.000006 -6.295928 10.543967
RightHandThumb1 30.482666 -12.916435 -20.793814
LeftUpLeg -16.483816 10.383193 6.610322
LeftLeg 14.773400 0.000000 0.000000
LeftFoot -12.818811 4.035997 -9.425621
LeftToeBase 3.577300 0.000000 0.000000
RightUpLeg -76.308758 -4.557078 5.571992
RightLeg 133.622803 0.000000 0.000000
RightFoot 29.737001 2.243662 -2.826715
RightToeBase 14.358300 -0.000000 0.000000
1104
root -1.281997 33.613134 -3.718193 10.944698 -1.519703 -15.552193
Spine -13.120539 10.279171 12.330906
Head -3.155339 -13.817132 9.097053
LeftShoulder 20.588751 9.594844 17.855640
LeftArm 3.800663 -19.499181 -83.589060
LeftForeArm -127.850739 19.607501 -14.615794
LeftHand -0.000007 34.493864 21.120500
LeftHandThumb1 30.357831 13.997178 22.438692
RightShoulder -9.855572 -21.103359 -18.556780
RightArm 17.270205 -13.316735 74.816937
RightForeArm 25.939884 -12.893609 24.642277
RightHand 0.000033 -6.278833 10.568368
RightHandThumb1 30.482666 -12.916435 -20.793814
LeftUpLeg -16.495681 10.386131 6.642617
LeftLeg 14.740300 -0.000000 0.000000
LeftFoot -12.744204 3.886932 -9.436080
LeftToeBase 3.527800 -0.000000 0.000000
RightUpLeg -76.258545 -4.613471 5.647678
RightLeg 134.166199 -0.000000 -0.000000
RightFoot 30.415473 2.437283 -2.536827
RightToeBase 14.486000 -0.000000 -0.000000
1105
root -1.282697 33.617532 -3.723393 10.952385 -1.426916 -15.543094
Spine -13.213870 10.344200 12.321828
Head -3.076653 -13.912489 9.111535
LeftShoulder 20.581295 9.678081 17.833774
LeftArm 3.936005 -19.563852 -83.567013
LeftForeArm -127.771571 19.604818 -14.574099
LeftHand 0.000005 34.449629 21.116541
LeftHandThumb1 30.357831 13.997178 22.438692
RightShoulder -9.846556 -21.141165 -18.561414
RightArm 17.278045 -13.363448 74.741682
RightForeArm 25.974616 -12.905426 24.628389
RightHand 0.000020 -6.234890 10.488884
RightHandThumb1 30.482666 -12.916435 -20.793814
LeftUpLeg -16.506264 10.321693 6.651200
LeftLeg 14.690900 -0.000000 -0.000000
LeftFoot -12.671489 3.813155 -9.415390
LeftToeBase 3.596300 -0.000000 -0.000000
RightUpLeg -76.255868 -4.661283 5.699792
RightLeg 134.691895 -0.000000 -0.000000
RightFoot 31.270177 2.584720 -1.951911
RightToeBase 14.218600 0.000000 0.000000
1106
root -1.285097 33.619634 -3.727693 10.934182 -1.362026 -15.529823
Spine -13.260798 10.413799 12.303893
Head -3.051526 -13.986345 9.142383
LeftShoulder 20.578137 9.731555 17.815662
LeftArm 4.033154 -19.632387 -83.530800
LeftForeArm -127.736064 19.647873 -14.585643
LeftHand -0.000036 34.529414 21.008765
LeftHandThumb1 30.357831 13.997178 22.438692
RightShoulder -9.845646 -21.174336 -18.565858
RightArm 17.278883 -13.391999 74.694480
RightForeArm 25.968422 -12.895558 24.618028
RightHand -0.000002 -6.248542 10.414632
RightHandThumb1 30.482666 -12.916435 -20.793814
LeftUpLeg -16.495612 10.279062 6.656806
LeftLeg 14.656600 0.000000 0.000000
LeftFoot -12.605356 3.745858 -9.426685
LeftToeBase 3.414600 0.000000 0.000000
RightUpLeg -76.275341 -4.702816 5.751004
RightLeg 135.207504 0.000000 0.000000
RightFoot 32.192849 2.703143 -1.213227
RightToeBase 13.972300 0.000000 0.000000
1107
root -1.287597 33.620134 -3.729493 10.876480 -1.329412 -15.502532
Spine -13.258591 10.504701 12.262290
Head -3.031064 -14.077607 9.191761
LeftShoulder 20.624671 9.796571 17.828213
LeftArm 4.187716 -19.785163 -83.503887
LeftForeArm -127.628559 19.723472 -14.582984
LeftHand -0.000069 34.532091 21.121691
LeftHandThumb1 30.357831 13.997178 22.438692
RightShoulder -9.867735 -21.205219 -18.567479
RightArm 17.194525 -13.421574 74.677534
RightForeArm 25.891666 -12.885260 24.674952
RightHand -0.000026 -6.238470 10.399416
RightHandThumb1 30.482666 -12.916435 -20.793814
LeftUpLeg -16.436798 10.200593 6.657870
LeftLeg 14.644300 -0.000000 -0.000000
LeftFoot -12.592638 3.766984 -9.410476
LeftToeBase 3.407900 -0.000000 -0.000000
RightUpLeg -76.299847 -4.718243 5.791897
RightLeg 135.716095 -0.000000 -0.000000
RightFoot 32.990920 2.699010 -0.564275
RightToeBase 13.615700 -0.000000 0.000000
1108
root -1.290397 33.619134 -3.730393 10.785008 -1.317545 -15.465053
Spine -13.212624 10.597793 12.205072
Head -3.025178 -14.188650 9.235671
LeftShoulder 20.569300 9.822454 17.858747
LeftArm 4.288228 -19.833370 -83.512628
LeftForeArm -127.524364 19.757591 -14.553646
LeftHand -0.000031 34.529295 21.065873
LeftHandThumb1 30.357831 13.997178 22.438692
RightShoulder -9.900007 -21.209216 -18.566058
RightArm 17.113106 -13.487154 74.668431
RightForeArm 25.854232 -12.866960 24.680751
RightHand 0.000004 -6.290114 10.403478
RightHandThumb1 30.482666 -12.916435 -20.793814
LeftUpLeg -16.333922 10.112492 6.655469
LeftLeg 14.619800 -0.000000 -0.000000
LeftFoot -12.587080 3.796983 -9.430674
LeftToeBase 3.422900 0.000000 0.000000
RightUpLeg -76.344008 -4.715618 5.801360
RightLeg 136.179001 -0.000000 0.000000
RightFoot 33.636404 2.625020 0.207160
RightToeBase 14.415300 -0.000000 -0.000000
1109
root -1.292497 33.616933 -3.731492 10.662810 -1.303531 -15.423948
Spine -13.128121 10.659120 12.159573
Head -2.990130 -14.303820 9.249913
LeftShoulder 20.597586 9.865078 17.866557
LeftArm 4.414294 -19.978195 -83.444491
LeftForeArm -127.398688 19.738414 -14.477522
LeftHand -0.000047 34.547347 21.220411
LeftHandThumb1 30.357831 13.997178 22.438692
RightShoulder -9.893394 -21.182462 -18.558362
RightArm 16.899193 -13.478707 74.685159
RightForeArm 25.731931 -12.884324 24.828341
RightHand 0.000040 -6.275689 10.519108
RightHandThumb1 30.482666 -12.916435 -20.793814
LeftUpLeg -16.208052 10.019678 6.654401
LeftLeg 14.603300 0.000000 0.000000
LeftFoot -12.558501 3.811201 -9.460727
LeftToeBase 3.243100 -0.000000 0.000000
RightUpLeg -76.406124 -4.715441 5.799532
RightLeg 136.584396 0.000000 0.000000
RightFoot 34.193454 2.517815 0.924701
RightToeBase 14.845400 -0.000000 -0.000000
1110
root -1.293697 33.613633 -3.732293 10.553106 -1.309669 -15.380537
Spine -13.051454 10.727749 12.097488
Head -2.983016 -14.391061 9.299869
LeftShoulder 20.592532 9.915745 17.907622
LeftArm 4.557337 -20.093309 -83.424698
LeftForeArm -127.302156 19.820977 -14.484646
LeftHand -0.000007 34.629001 21.254072
LeftHandThumb1 30.357831 13.997178 22.438692
RightShoulder -9.936948 -21.166897 -18.557173
RightArm 16.833568 -13.518109 74.701308
RightForeArm 25.641761 -12.812113 24.795674
RightHand 0.000048 -6.300415 10.494454
RightHandThumb1 30.482666 -12.916435 -20.793814
LeftUpLeg -16.094745 9.968991 6.636754
LeftLeg 14.605700 0.000000 0.000000
LeftFoot -12.579784 3.821727 -9.418386
LeftToeBase 3.305700 -0.000000 -0.000000
RightUpLeg -76.538792 -4.685441 5.806050
RightLeg 136.916702 0.000000 0.000000
RightFoot 34.577954 2.163539 1.654572
RightToeBase 15.739200 -0.000000 -0.000000
